<?xml version="1.0" standalone="no"?>
<!DOCTYPE svg PUBLIC "-//W3C//DTD SVG 20010904//EN"
 "http://www.w3.org/TR/2001/REC-SVG-20010904/DTD/svg10.dtd">
<svg version="1.0" xmlns="http://www.w3.org/2000/svg"
 width="436.000000pt" height="298.000000pt" viewBox="0 0 436.000000 298.000000"
 preserveAspectRatio="xMidYMid meet">

<g transform="translate(0.000000,298.000000) scale(0.100000,-0.100000)"
fill="#000000" stroke="none">
<path d="M4303 2933 c4 -46 34 -113 50 -113 11 0 9 48 -5 107 -10 40 -17 53
-31 53 -15 0 -17 -7 -14 -47z"/>
<path d="M2070 2010 c-358 -4 -531 -10 -545 -17 -12 -6 -26 -22 -33 -35 -12
-23 -331 -1277 -339 -1335 -4 -22 1 -37 16 -52 12 -12 18 -21 14 -21 -19 0
-171 -33 -188 -40 -11 -5 -72 -21 -135 -36 -63 -15 -131 -30 -150 -35 -19 -4
-53 -13 -75 -19 -22 -7 -57 -14 -77 -17 -42 -6 -50 -19 -15 -26 17 -3 16 -5
-8 -6 -24 -1 -27 -4 -14 -11 19 -11 1938 -160 2058 -160 74 0 97 6 283 71 297
104 413 162 455 225 15 23 13 39 -27 262 l-43 237 82 448 c44 246 81 464 81
485 0 44 -5 51 -47 75 -35 19 -203 20 -1293 7z m480 -210 c11 -6 47 -11 80
-12 54 -1 64 -5 85 -29 19 -23 22 -34 15 -63 -4 -19 -5 -37 -2 -40 2 -3 -1
-12 -8 -21 -10 -12 -9 -20 4 -41 10 -14 16 -39 14 -57 l-3 -32 -61 -1 c-60 0
-150 -20 -159 -34 -10 -15 28 -110 46 -115 9 -3 22 -12 29 -20 9 -11 7 -12 -9
-8 -16 4 -21 1 -21 -14 0 -43 66 -71 111 -47 15 7 30 14 34 14 13 0 3 -48 -15
-68 -11 -12 -20 -28 -20 -36 0 -8 -9 -31 -21 -50 -15 -25 -28 -36 -45 -36 -19
0 -24 -5 -24 -26 0 -23 -3 -25 -30 -19 -35 8 -70 -1 -70 -19 0 -9 -17 -10 -70
-5 -38 4 -77 12 -85 16 -13 8 -12 11 9 22 14 8 22 19 19 27 -5 13 8 19 30 15
4 -1 21 6 37 14 17 9 40 13 53 10 27 -7 61 24 55 52 -2 14 -14 19 -49 21 -31
2 -53 10 -65 23 -17 19 -17 22 4 82 12 34 22 76 22 93 0 18 6 47 14 65 14 33
14 33 -29 66 -30 23 -60 35 -96 41 -60 8 -74 27 -32 43 37 14 73 48 73 70 0
10 5 21 10 24 6 3 10 14 10 24 0 24 27 47 75 64 51 18 62 19 85 7z m-249 -297
c12 -15 12 -16 -4 -10 -10 4 -27 7 -38 7 -10 0 -19 5 -19 10 0 16 47 11 61 -7z
m410 -43 c10 -6 19 -17 19 -24 0 -10 -12 -10 -56 -2 -50 9 -54 11 -38 23 21
16 48 17 75 3z m-25 -56 c18 -15 18 -15 -6 -10 -14 3 -29 6 -33 6 -5 0 -5 5
-2 10 9 14 18 13 41 -6z m-350 -13 c-7 -11 -95 -35 -102 -28 -9 9 48 35 79 36
16 1 26 -3 23 -8z m-165 -72 c20 -14 38 -19 54 -15 24 6 25 5 19 -41 -9 -73
-22 -100 -56 -112 -27 -9 -29 -9 -23 9 5 14 2 20 -9 20 -9 0 -16 6 -17 13 0 6
-2 25 -4 42 -2 16 1 35 7 42 7 8 7 13 0 13 -5 0 -12 11 -14 25 -6 30 5 32 43
4z m687 -287 c18 -18 17 -25 -14 -213 -34 -201 -52 -301 -57 -304 -1 -1 -41 0
-89 3 -60 3 -88 8 -88 17 0 16 -29 73 -41 80 -5 4 -7 11 -4 16 4 5 -1 9 -9 9
-11 0 -16 -9 -16 -29 0 -17 -4 -32 -8 -35 -5 -3 -27 20 -51 50 -59 75 -54 100
38 194 38 38 74 70 80 70 7 0 11 6 10 13 -4 19 23 67 37 67 8 0 18 -15 23 -32
8 -27 10 -28 9 -8 -2 34 12 90 22 90 5 0 12 -4 15 -10 10 -16 55 -12 55 4 0
20 21 31 30 17 5 -9 10 -8 20 4 16 19 16 19 38 -3z m-104 -7 c-4 -8 -10 -12
-15 -9 -14 8 -10 24 6 24 9 0 12 -6 9 -15z m-376 -222 c4 -26 0 -27 -45 -11
-46 17 -44 40 5 36 30 -2 38 -7 40 -25z m-488 -68 c9 -10 16 -12 20 -6 3 7 22
-4 44 -25 35 -33 37 -38 23 -52 -13 -13 -19 -13 -31 -2 -10 7 -16 8 -16 2 0
-6 5 -12 11 -14 9 -3 8 -11 -1 -28 -13 -24 -13 -24 -27 23 -7 26 -17 47 -22
47 -5 0 -11 8 -14 18 -2 9 -8 25 -12 35 -9 21 8 23 25 2z m-222 -71 c13 -9 22
-11 22 -4 0 6 5 8 10 5 13 -8 53 -85 47 -91 -2 -3 -16 0 -31 5 -14 6 -33 8
-41 5 -9 -4 -68 -3 -133 1 l-117 7 63 29 c35 16 68 27 73 24 5 -4 9 -2 9 3 0
7 41 25 70 31 3 1 16 -6 28 -15z m87 -14 c-3 -5 -2 -10 3 -10 6 0 15 -14 21
-31 15 -44 14 -46 -9 -19 -11 13 -20 27 -20 31 0 4 -3 14 -6 23 -3 9 -1 16 6
16 6 0 8 -4 5 -10z m285 -45 c19 -36 8 -40 -12 -4 -9 16 -14 29 -9 29 4 0 14
-11 21 -25z m436 -13 c-4 -3 -11 0 -16 8 -15 24 -11 33 6 15 9 -9 13 -19 10
-23z m-146 -6 c0 -30 -13 -46 -36 -46 -30 0 -30 7 -2 37 25 26 38 29 38 9z
m133 -36 c3 -13 0 -20 -9 -20 -8 0 -14 9 -14 20 0 11 4 20 9 20 5 0 11 -9 14
-20z m47 6 c0 -16 -18 -31 -27 -22 -8 8 5 36 17 36 5 0 10 -6 10 -14z m-1232
-13 c-10 -2 -26 -2 -35 0 -10 3 -2 5 17 5 19 0 27 -2 18 -5z m170 -10 c-16 -2
-40 -2 -55 0 -16 2 -3 4 27 4 30 0 43 -2 28 -4z m159 -10 c-20 -2 -52 -2 -70
0 -17 2 0 4 38 4 39 0 53 -2 32 -4z m161 -10 c-21 -2 -55 -2 -75 0 -21 2 -4 4
37 4 41 0 58 -2 38 -4z m160 -10 c-21 -2 -55 -2 -75 0 -21 2 -4 4 37 4 41 0
58 -2 38 -4z m149 -10 c-20 -2 -52 -2 -70 0 -17 2 0 4 38 4 39 0 53 -2 32 -4z
m1053 -8 c0 -29 -74 -55 -152 -53 l-73 1 80 6 c82 6 118 19 129 46 7 19 16 19
16 0z m-893 -2 c-20 -2 -52 -2 -70 0 -17 2 0 4 38 4 39 0 53 -2 32 -4z m161
-10 c-21 -2 -55 -2 -75 0 -21 2 -4 4 37 4 41 0 58 -2 38 -4z m150 -10 c-21 -2
-55 -2 -75 0 -21 2 -4 4 37 4 41 0 58 -2 38 -4z m160 -10 c-21 -2 -57 -2 -80
0 -24 2 -7 4 37 4 44 0 63 -2 43 -4z m160 -10 c-21 -2 -57 -2 -80 0 -24 2 -7
4 37 4 44 0 63 -2 43 -4z"/>
<path d="M2845 1010 c-3 -5 -1 -10 4 -10 6 0 11 5 11 10 0 6 -2 10 -4 10 -3 0
-8 -4 -11 -10z"/>
<path d="M2625 920 c-3 -5 -1 -10 4 -10 6 0 11 5 11 10 0 6 -2 10 -4 10 -3 0
-8 -4 -11 -10z"/>
<path d="M3772 1742 c2 -115 7 -164 16 -175 26 -31 31 -84 15 -160 -12 -56
-14 -110 -9 -242 3 -93 10 -183 15 -200 l8 -30 13 30 c27 67 47 373 30 452 -7
28 -7 49 -1 57 6 7 4 20 -4 36 -8 14 -14 31 -15 39 0 8 -10 25 -21 37 -16 17
-23 42 -29 96 -9 94 1 196 20 208 11 7 8 10 -13 10 l-29 0 4 -158z"/>
<path d="M4125 1439 c-27 -4 -70 -9 -95 -11 -43 -3 -45 -5 -43 -33 2 -32 -21
-339 -38 -495 -12 -120 -39 -184 -83 -198 -26 -8 -16 -10 59 -11 50 0 168 2
263 6 172 6 172 6 172 29 0 13 -16 45 -36 71 -77 100 -144 287 -146 405 0 35
5 98 12 141 11 76 9 108 -7 106 -4 -1 -30 -5 -58 -10z"/>
<path d="M353 975 c-51 -21 -52 -37 -15 -245 12 -70 3 -192 -15 -213 -19 -20
-61 -44 -103 -58 -15 -6 19 -7 85 -4 60 3 113 9 117 13 3 4 2 27 -4 52 -6 25
-14 138 -17 252 -3 113 -8 209 -11 211 -3 3 -19 -1 -37 -8z"/>
<path d="M3965 549 c-26 -12 -62 -19 -102 -19 -51 0 -64 -3 -73 -19 -16 -30
-12 -39 20 -56 26 -14 32 -14 63 1 33 16 36 16 67 -7 27 -21 42 -24 103 -22
111 3 133 9 156 47 24 38 27 66 9 84 -20 20 -195 14 -243 -9z"/>
<path d="M3155 359 c-82 -45 -154 -85 -159 -90 -5 -5 -4 -14 3 -23 7 -9 10
-24 6 -37 -7 -21 -5 -21 56 -14 80 9 187 64 236 120 28 33 33 46 31 79 -2 22
-7 41 -13 43 -5 1 -77 -34 -160 -78z"/>
<path d="M2162 53 l-2162 -3 0 -25 0 -25 2180 0 2180 0 0 30 c0 23 -4 29 -17
28 -10 -2 -991 -4 -2181 -5z"/>
</g>
</svg>
